<?xml version="1.0" standalone="no"?>
<!DOCTYPE svg PUBLIC "-//W3C//DTD SVG 20010904//EN"
 "http://www.w3.org/TR/2001/REC-SVG-20010904/DTD/svg10.dtd">
<svg version="1.0" xmlns="http://www.w3.org/2000/svg"
 width="1296.000000pt" height="1296.000000pt" viewBox="0 0 1296.000000 1296.000000"
 preserveAspectRatio="xMidYMid meet">
<metadata>
Created by potrace 1.11, written by Peter Selinger 2001-2013
</metadata>
<g transform="translate(0.000000,1296.000000) scale(0.100000,-0.100000)"
fill="#000000" stroke="none">
<path d="M6629 10546 c-2 -2 -44 -7 -94 -10 -111 -7 -207 -19 -305 -36 -30 -5
-73 -12 -95 -16 -22 -3 -68 -12 -101 -19 -34 -8 -73 -16 -85 -19 -94 -17 -356
-95 -509 -151 -394 -145 -801 -376 -1076 -610 -122 -103 -317 -302 -394 -402
-52 -67 -130 -173 -130 -177 0 -3 -13 -24 -29 -48 -156 -233 -288 -593 -326
-893 -3 -27 -8 -51 -9 -53 -3 -2 -24 -6 -116 -17 -25 -3 -56 -7 -70 -10 -14
-2 -45 -7 -70 -10 -36 -5 -156 -30 -240 -50 -100 -24 -298 -91 -379 -127 -336
-152 -526 -266 -751 -452 -96 -79 -303 -283 -370 -366 -25 -30 -47 -57 -50
-60 -19 -17 -159 -216 -193 -275 -22 -38 -46 -77 -53 -85 -19 -23 -138 -265
-176 -360 -104 -255 -181 -565 -205 -825 -15 -166 -8 -510 13 -665 26 -187 85
-431 139 -575 19 -51 35 -95 35 -99 0 -3 12 -31 26 -63 147 -329 299 -567 511
-808 81 -92 140 -149 307 -300 99 -91 358 -265 516 -348 241 -127 594 -251
805 -282 22 -4 56 -10 75 -15 38 -10 105 -18 245 -30 116 -10 7023 -6 7090 4
28 4 91 17 140 27 50 11 99 22 110 24 11 3 56 15 100 29 626 188 1147 665
1393 1275 74 183 113 335 147 571 13 93 13 386 -1 495 -63 507 -275 945 -626
1296 -115 115 -278 245 -410 327 -37 23 -70 42 -74 42 -3 0 -18 8 -32 18 -39
27 -221 105 -338 146 -99 33 -343 92 -414 98 -33 3 -35 5 -36 43 -3 99 -15
325 -20 370 -15 145 -35 278 -60 400 -14 66 -27 131 -30 145 -24 116 -116 418
-154 505 -5 11 -29 70 -54 131 -272 677 -781 1305 -1386 1711 -407 273 -824
446 -1305 542 -99 20 -122 23 -240 36 -33 4 -73 9 -90 11 -38 7 -550 16 -556
10z m446 -491 c61 -4 119 -9 130 -11 11 -2 56 -8 100 -14 44 -6 91 -12 105
-15 14 -3 48 -10 75 -15 128 -26 378 -102 505 -155 231 -97 509 -255 685 -389
153 -117 403 -350 511 -476 296 -345 522 -747 666 -1184 45 -136 98 -335 112
-418 3 -18 8 -43 10 -54 2 -12 7 -39 10 -60 4 -22 8 -46 11 -54 2 -8 6 -46 10
-83 3 -37 8 -77 10 -87 9 -49 18 -237 20 -445 1 -207 4 -235 22 -276 37 -84
113 -136 210 -144 32 -3 90 -7 128 -10 221 -14 446 -75 637 -171 479 -241 808
-673 919 -1204 27 -132 35 -418 14 -555 -48 -325 -161 -582 -371 -845 -55 -69
-193 -206 -259 -256 -275 -212 -571 -330 -902 -361 -99 -9 -6763 -9 -6898 0
-192 13 -323 38 -530 99 -55 17 -109 32 -120 35 -11 3 -24 9 -30 13 -5 4 -28
13 -50 20 -58 18 -289 135 -368 186 -37 24 -70 44 -73 44 -3 0 -10 5 -17 10
-7 6 -52 40 -102 78 -612 461 -972 1189 -967 1957 1 61 4 135 7 165 14 151 18
181 31 250 9 41 18 88 20 103 31 171 163 508 266 679 48 82 119 190 142 220
12 14 32 41 46 59 199 261 479 496 787 659 205 109 410 182 664 235 133 28
187 35 349 41 165 6 213 16 267 57 67 51 91 111 98 244 6 127 9 149 36 286 29
147 64 248 134 392 275 568 837 1012 1614 1275 197 66 505 136 685 156 33 3
69 8 80 10 11 2 70 6 130 10 61 4 112 7 113 8 5 4 234 -2 328 -9z"/>
<path d="M6570 7381 c-114 -37 -183 -127 -181 -237 1 -93 25 -129 206 -309 91
-90 165 -168 165 -172 0 -4 -542 -8 -1204 -7 -663 0 -1231 -3 -1263 -7 -32 -4
-74 -9 -93 -12 -219 -29 -503 -159 -690 -316 -249 -208 -429 -504 -496 -816
-26 -119 -29 -155 -29 -320 1 -181 16 -276 71 -445 166 -504 616 -891 1139
-979 142 -24 307 -23 352 2 179 97 177 352 -4 437 -32 15 -72 22 -141 26 -54
3 -113 9 -132 14 -19 5 -49 11 -65 14 -127 22 -309 122 -433 237 -127 120
-247 325 -276 474 -2 11 -7 31 -10 45 -14 59 -16 91 -16 192 0 422 266 788
670 921 72 24 99 30 184 42 35 5 815 7 2088 5 l357 0 -170 -170 c-187 -187
-212 -225 -211 -316 1 -130 98 -230 231 -239 106 -6 115 1 534 420 208 208
389 392 402 410 52 67 59 166 19 252 -21 46 -786 809 -836 834 -45 23 -129 33
-168 20z"/>
<path d="M8256 6646 c-52 -16 -111 -68 -138 -119 -25 -48 -32 -138 -16 -191
26 -85 117 -153 214 -161 32 -3 86 -8 119 -11 279 -25 567 -203 717 -444 105
-169 152 -333 152 -525 -2 -418 -268 -787 -664 -918 -152 -51 -126 -50 -1417
-51 -667 -1 -1213 1 -1213 4 0 3 74 79 164 169 185 185 209 221 209 315 0 180
-189 296 -348 214 -36 -19 -155 -132 -436 -415 -213 -213 -395 -404 -405 -423
-25 -49 -26 -162 0 -213 25 -51 793 -819 843 -843 162 -77 348 41 347 221 0
41 -7 73 -22 102 -12 23 -96 117 -188 208 -91 92 -164 168 -162 171 3 2 560 4
1239 5 1187 0 1238 1 1339 20 123 24 287 77 385 126 135 68 307 191 390 279
252 269 374 525 420 884 7 55 7 242 0 290 -2 19 -7 58 -11 85 -3 28 -15 84
-26 125 -11 41 -21 82 -23 90 -2 8 -9 29 -16 45 -6 17 -13 35 -15 40 -1 6 -20
48 -42 95 -119 252 -318 473 -557 620 -120 74 -314 157 -410 176 -21 4 -122
22 -164 29 -69 12 -229 12 -265 1z"/>
</g>
</svg>
